<?xml version="1.0" encoding="UTF-8"?>
<svg id="_图层_6" data-name="图层 6" xmlns="http://www.w3.org/2000/svg" viewBox="0 0 331.37 87.48">
  <defs>
    <style>
      .cls-1 {
        fill: #040000;
      }
    </style>
  </defs>
  <path class="cls-1" d="M25.89,72.14v6.23h-6.23v-24.91h18.68v18.68h-12.46Zm6.23-6.23v-6.23h-6.23v6.23h6.23Zm8.3-6.23h4.15v-2.08h8.3v-2.08h-8.3v-6.23h10.38v4.15h4.15v18.68h-18.68v-12.46Zm12.46,6.23v-2.08h-6.23v2.08h6.23Zm10.38-12.46v-4.15h6.23v4.15h6.23v6.23h-6.23v6.23h6.23v6.23h-12.46v-12.46h-4.15v-6.23h4.15Zm16.6,0v-4.15h6.23v4.15h6.23v6.23h-6.23v6.23h6.23v6.23h-12.46v-12.46h-4.15v-6.23h4.15Zm33.21,10.38h-12.46v2.08h8.3v6.23h-14.53v-18.68h4.15v-4.15h14.53v14.53Zm-6.23-6.23v-2.08h-6.23v2.08h6.23Zm8.3-4.15h6.23v2.08h6.23v6.23h-6.23v10.38h-6.23v-18.68Zm26.98,0v2.08h4.15v16.61h-6.23v-12.46h-6.23v12.46h-6.23v-18.68h14.53Zm14.53,20.76h8.3v-2.08h-12.46v-18.68h18.68v22.84h-4.15v4.15h-10.38v-6.23Zm8.3-8.3v-6.23h-6.23v6.23h6.23Zm26.98-2.08h-12.46v2.08h8.3v6.23h-14.53v-18.68h4.15v-4.15h14.53v14.53Zm-6.23-6.23v-2.08h-6.23v2.08h6.23Zm22.83-4.15v2.08h4.15v16.61h-6.23v-12.46h-6.23v12.46h-6.23v-18.68h14.53Zm24.91,10.38h-12.46v2.08h8.3v6.23h-14.53v-18.68h4.15v-4.15h14.53v14.53Zm-6.23-6.23v-2.08h-6.23v2.08h6.23Zm8.3-4.15h6.23v2.08h6.23v6.23h-6.23v10.38h-6.23v-18.68Zm12.45,6.23h4.15v-2.08h8.3v-2.08h-8.3v-6.23h10.38v4.15h4.15v18.68h-18.68v-12.46Zm12.46,6.23v-2.08h-6.23v2.08h6.23Zm10.38-12.46v-4.15h6.23v4.15h6.23v6.23h-6.23v6.23h6.23v6.23h-12.46v-12.46h-4.15v-6.23h4.15Zm14.53,18.68v-18.68h18.68v18.68h-18.68Zm12.46-6.23v-6.23h-6.23v6.23h6.23Zm8.3-12.46h6.23v2.08h6.23v6.23h-6.23v10.38h-6.23v-18.68ZM29.83,11.15v4.9h12.05c-2.62,2.46-6.63,4.8-12.05,7.03v-7.03h-8.94V49.5h8.94v-1.63h40.67v1.59h8.94V11.15H29.83Zm0,12.48c1.73,.96,3.15,1.83,4.27,2.6,1.58-.67,3.08-1.35,4.5-2.05,1.3,.86,2.76,1.67,4.38,2.43-3.8,.72-8.19,1.34-13.15,1.87v-4.85Zm40.67,19.34h-5.76l1.81-4.38c-10.06-1.05-20.79-2.05-32.19-3l-1.81,4.26c12.46,.96,23.08,2,31.86,3.12H29.83v-14.15c1.23,1.24,2.24,2.43,3.04,3.57,2.29-.27,4.48-.57,6.58-.89l-1.01,2.92c8.86,.75,16.84,1.52,23.97,2.31l1.29-3.86c-6.84-.71-13.85-1.35-21.02-1.92,2.77-.5,5.35-1.06,7.74-1.66,4.69,1.28,10.24,2.26,16.65,2.94,1.34-1.46,2.48-2.69,3.43-3.67v14.41Zm-26.74-21.08h13.92c-1.75,1.09-4.13,2.08-7.16,2.96-2.76-.85-5.02-1.84-6.76-2.96Zm26.74,6.18c-4.44-.34-8.42-.8-11.91-1.4,3.73-1.48,6.73-3.19,9-5.11v-3.32h-19.33c.9-.72,1.76-1.45,2.55-2.19h19.69v12.02Zm69.58,16.01c-7.87-.96-14.32-2.3-19.35-4.03h20.02v-4.22h-26.36v-3h-8.55v3h-26.49v4.22h19.72c-5.5,1.93-12.05,3.36-19.63,4.29-.48,.06-.96,.12-1.45,.17,.5,.57,.98,1.16,1.45,1.78,.73,.94,1.43,1.94,2.11,3,10.06-1.62,18.16-4.02,24.29-7.19v7.52h8.55v-7.38c6.21,3.12,14.35,5.47,24.41,7.05,.4-.61,.82-1.24,1.28-1.88,.69-.98,1.45-2,2.29-3.06-.78-.09-1.54-.17-2.29-.27Zm-31.88-24.38l2.43-1.87-9.78-1.09c-1.06,1-2.15,1.99-3.27,2.96h-18.23v3.81h13.57c-1.69,1.3-3.45,2.57-5.28,3.81,4.23,.5,8.43,1.05,12.6,1.64-5.08,.54-11.26,.93-18.56,1.16,1.21,1.46,2.33,3.01,3.37,4.66,12.58-.95,22.2-2.19,28.85-3.73,6.93,1.15,13.74,2.42,20.43,3.81l4.28-4.86-15.48-2.05c2.55-1.23,4.84-2.71,6.87-4.44h11.01v-3.81h-32.81Zm4.79,6.95l-12.2-1.48,2.29-1.66h16.71c-1.81,1.28-4.07,2.33-6.8,3.14Zm18.06-10.04v-4.17h-15.3v-3.72h-10.92v3.72h-24.64v6.53h8.68v-2.35h42.23v2.35h8.68v-2.36h-8.73Zm46,25.55v-6.89h18.98v-5.48h-18.98v-6.73h21.51v-5.47h-21.51V9.56h-6.53v3.22h-3.18v4.81h-11.66c1.08-1.63,2.1-3.31,3.05-5.03l-9.65-1.5c-2.32,4.6-5.01,8.51-8.07,11.73-.23,.25-.46,.49-.7,.72-.83,.83-1.68,1.62-2.57,2.35,1.6,2.41,3.07,4.73,4.41,6.97,3.52-3.02,6.69-6.28,9.52-9.77h15.67v6.73h-19.17v5.48h19.17v6.89h-27.26v5.63h60.81v-5.63h-23.84Zm81.45-30.53h-7.77v4.58h-8.84l-.09-6.69h-4.76v3.18h-4.3l.15,3.51h-21.91v4.93h-8.5v8.82c-.03,4.88-.97,8.95-2.83,12.2-.72,1.29-1.6,2.45-2.61,3.48,1.32,.61,2.61,1.23,3.85,1.88,1.31,.68,2.58,1.38,3.8,2.1,4.16-4.18,6.28-10.46,6.34-18.85h9.46c0,2.24-.16,4.08-.47,5.51-.31,1.43-1.63,2.15-3.94,2.15-1.19,0-2.8-.12-4.85-.37,.6,1.65,1.12,3.63,1.55,5.92,2.82,.08,5.13,.06,6.93-.04v-6.87h8.96c.19-1.15,.33-2.53,.43-4.14,.26-4.31,.39-6.66,.39-7.07h-18.46v-4.78h22.18c.57,7.13,1.63,12.73,3.21,16.78-2.03,1.47-4.17,2.84-6.43,4.12-1.23,.7-2.48,1.37-3.78,2.01-.92,.46-1.86,.9-2.81,1.33,2.42,1.27,4.66,2.7,6.74,4.3,3.45-1.68,6.73-3.57,9.84-5.68,3.09,3.68,6.98,5.52,11.69,5.52,1.58,0,3.14-.34,4.7-1,1.55-.66,2.8-2.18,3.75-4.56,.38-.96,.7-1.84,.95-2.65,.37-1.2,.59-2.24,.67-3.11-.23-.06-.45-.12-.67-.18-3.26-.86-5.79-1.63-7.62-2.29-.02,1.14-.23,2.48-.61,4.05-.39,1.56-.75,2.53-1.07,2.92-.33,.4-.73,.59-1.23,.59-1.3,0-2.75-1.32-4.37-3.95,4.23-3.55,8.07-7.6,11.53-12.14,.45-.58,.89-1.17,1.32-1.77l-.28-.08-7.68-2.23c-2.23,3.22-4.76,6.2-7.61,8.94-.72-3.08-1.18-6.72-1.4-10.92h18.59v-4.87h-2.14v-4.58Zm36.41,17.8h25.48v-2.38h-2.62v-1.76h-7.16l-.02-1.66h-8.68l-.04,1.66h-8.74c.19-.63,.34-1.31,.45-2.02h-9.07c-.08,.73-.22,1.4-.42,2.02h-26.39v4.14h23.28c-2.78,2.11-10.82,3.27-24.12,3.49,.64,1.45,1.1,2.83,1.36,4.13,.97-.03,1.92-.07,2.85-.12v12.36h7.51v-1.54h10.3v1.54h7.51v-13.21h-14.8c8.57-1.03,14.35-2.66,17.33-4.91,3.5,2.29,8.83,3.92,16,4.91h-13.48v13.13h7.52v-1.46h10.36v1.54h7.51v-12.24c.87,.04,1.75,.07,2.66,.08,.38-1.27,.95-2.66,1.68-4.17-12.91-.13-21.66-1.3-26.26-3.53Zm-16.03,10.78v3.41h-10.3v-3.41h10.3Zm30.44,3.41h-10.36v-3.41h10.36v3.41Zm-45.01-32.39v2.33h-3.24v9.1h25.39V11.23h-22.15Zm14.24,7.29h-9.58v-3.16h9.58v3.16Zm32.04-4.96v-2.33h-19.08v11.43h25.32V13.56h-6.24Zm-1.66,4.96h-9.46v-3.16h9.46v3.16Zm-89.22,18.54h-8.48v6.88h8.48v-6.88ZM18.97,10.04h-6.01v6.01h6.01v-6.01Zm-3.01,21.66h-3.01v3.01h3.01v-3.01ZM3.11,66.58H0v3.11H3.11v-3.11Zm12.5,11.79h-4.78v4.78h4.78v-4.78ZM203.34,9.56h-3.58v3.58h3.58v-3.58Zm2.87-3.19h-.56v.56h.56v-.56Zm119.9,18.48h-3.22v3.22h3.22v-3.22Zm5.26,22.94h-4.66v4.66h4.66v-4.66Zm-7.83,6.69h-2.37v2.37h2.37v-2.37Zm-3.2-44.92h-1.79v1.79h1.79v-1.79Zm-.21,61.01h-1.58v1.58h1.58v-1.58Zm-167.2,12.58h-2.28v2.28h2.28v-2.28ZM319.33,0h-3.67V3.67h3.67V0Zm7.47,3.67h-.7v.7h.7v-.7Zm1.83,72.79h-5.09v5.09h5.09v-5.09ZM171.77,0h-1.17V1.17h1.17V0Zm10.5,1.83h-2.53v2.53h2.53V1.83Zm-50.06,2.53h-3.66v3.66h3.66v-3.66ZM14.46,56.85h-1.5v1.5h1.5v-1.5Zm37.48,21.52h-1.21v1.21h1.21v-1.21Zm189.84,7.06h-2.05v2.05h2.05v-2.05ZM8.23,37.06h-2.65v2.65h2.65v-2.65Zm17.66,35.08v6.23h-6.23v-24.91h18.68v18.68h-12.46Zm6.23-6.23v-6.23h-6.23v6.23h6.23Zm8.3-6.23h4.15v-2.08h8.3v-2.08h-8.3v-6.23h10.38v4.15h4.15v18.68h-18.68v-12.46Zm12.46,6.23v-2.08h-6.23v2.08h6.23Zm10.38-12.46v-4.15h6.23v4.15h6.23v6.23h-6.23v6.23h6.23v6.23h-12.46v-12.46h-4.15v-6.23h4.15Zm16.6,0v-4.15h6.23v4.15h6.23v6.23h-6.23v6.23h6.23v6.23h-12.46v-12.46h-4.15v-6.23h4.15Zm33.21,10.38h-12.46v2.08h8.3v6.23h-14.53v-18.68h4.15v-4.15h14.53v14.53Zm-6.23-6.23v-2.08h-6.23v2.08h6.23Zm8.3-4.15h6.23v2.08h6.23v6.23h-6.23v10.38h-6.23v-18.68Zm26.98,0v2.08h4.15v16.61h-6.23v-12.46h-6.23v12.46h-6.23v-18.68h14.53Zm14.53,20.76h8.3v-2.08h-12.46v-18.68h18.68v22.84h-4.15v4.15h-10.38v-6.23Zm8.3-8.3v-6.23h-6.23v6.23h6.23Zm26.98-2.08h-12.46v2.08h8.3v6.23h-14.53v-18.68h4.15v-4.15h14.53v14.53Zm-6.23-6.23v-2.08h-6.23v2.08h6.23Zm22.83-4.15v2.08h4.15v16.61h-6.23v-12.46h-6.23v12.46h-6.23v-18.68h14.53Zm24.91,10.38h-12.46v2.08h8.3v6.23h-14.53v-18.68h4.15v-4.15h14.53v14.53Zm-6.23-6.23v-2.08h-6.23v2.08h6.23Zm8.3-4.15h6.23v2.08h6.23v6.23h-6.23v10.38h-6.23v-18.68Zm12.45,6.23h4.15v-2.08h8.3v-2.08h-8.3v-6.23h10.38v4.15h4.15v18.68h-18.68v-12.46Zm12.46,6.23v-2.08h-6.23v2.08h6.23Zm10.38-12.46v-4.15h6.23v4.15h6.23v6.23h-6.23v6.23h6.23v6.23h-12.46v-12.46h-4.15v-6.23h4.15Zm14.53,18.68v-18.68h18.68v18.68h-18.68Zm12.46-6.23v-6.23h-6.23v6.23h6.23Zm8.3-12.46h6.23v2.08h6.23v6.23h-6.23v10.38h-6.23v-18.68ZM29.83,11.15v4.9h12.05c-2.62,2.46-6.63,4.8-12.05,7.03v-7.03h-8.94V49.5h8.94v-1.63h40.67v1.59h8.94V11.15H29.83Zm0,12.48c1.73,.96,3.15,1.83,4.27,2.6,1.58-.67,3.08-1.35,4.5-2.05,1.3,.86,2.76,1.67,4.38,2.43-3.8,.72-8.19,1.34-13.15,1.87v-4.85Zm40.67,19.34h-5.76l1.81-4.38c-10.06-1.05-20.79-2.05-32.19-3l-1.81,4.26c12.46,.96,23.08,2,31.86,3.12H29.83v-14.15c1.23,1.24,2.24,2.43,3.04,3.57,2.29-.27,4.48-.57,6.58-.89l-1.01,2.92c8.86,.75,16.84,1.52,23.97,2.31l1.29-3.86c-6.84-.71-13.85-1.35-21.02-1.92,2.77-.5,5.35-1.06,7.74-1.66,4.69,1.28,10.24,2.26,16.65,2.94,1.34-1.46,2.48-2.69,3.43-3.67v14.41Zm-26.74-21.08h13.92c-1.75,1.09-4.13,2.08-7.16,2.96-2.76-.85-5.02-1.84-6.76-2.96Zm26.74,6.18c-4.44-.34-8.42-.8-11.91-1.4,3.73-1.48,6.73-3.19,9-5.11v-3.32h-19.33c.9-.72,1.76-1.45,2.55-2.19h19.69v12.02Zm69.58,16.01c-7.87-.96-14.32-2.3-19.35-4.03h20.02v-4.22h-26.36v-3h-8.55v3h-26.49v4.22h19.72c-5.5,1.93-12.05,3.36-19.63,4.29-.48,.06-.96,.12-1.45,.17,.5,.57,.98,1.16,1.45,1.78,.73,.94,1.43,1.94,2.11,3,10.06-1.62,18.16-4.02,24.29-7.19v7.52h8.55v-7.38c6.21,3.12,14.35,5.47,24.41,7.05,.4-.61,.82-1.24,1.28-1.88,.69-.98,1.45-2,2.29-3.06-.78-.09-1.54-.17-2.29-.27Zm-31.88-24.38l2.43-1.87-9.78-1.09c-1.06,1-2.15,1.99-3.27,2.96h-18.23v3.81h13.57c-1.69,1.3-3.45,2.57-5.28,3.81,4.23,.5,8.43,1.05,12.6,1.64-5.08,.54-11.26,.93-18.56,1.16,1.21,1.46,2.33,3.01,3.37,4.66,12.58-.95,22.2-2.19,28.85-3.73,6.93,1.15,13.74,2.42,20.43,3.81l4.28-4.86-15.48-2.05c2.55-1.23,4.84-2.71,6.87-4.44h11.01v-3.81h-32.81Zm4.79,6.95l-12.2-1.48,2.29-1.66h16.71c-1.81,1.28-4.07,2.33-6.8,3.14Zm18.06-10.04v-4.17h-15.3v-3.72h-10.92v3.72h-24.64v6.53h8.68v-2.35h42.23v2.35h8.68v-2.36h-8.73Zm46,25.55v-6.89h18.98v-5.48h-18.98v-6.73h21.51v-5.47h-21.51V9.56h-6.53v3.22h-3.18v4.81h-11.66c1.08-1.63,2.1-3.31,3.05-5.03l-9.65-1.5c-2.32,4.6-5.01,8.51-8.07,11.73-.23,.25-.46,.49-.7,.72-.83,.83-1.68,1.62-2.57,2.35,1.6,2.41,3.07,4.73,4.41,6.97,3.52-3.02,6.69-6.28,9.52-9.77h15.67v6.73h-19.17v5.48h19.17v6.89h-27.26v5.63h60.81v-5.63h-23.84Zm81.45-30.53h-7.77v4.58h-8.84l-.09-6.69h-4.76v3.18h-4.3l.15,3.51h-21.91v4.93h-8.5v8.82c-.03,4.88-.97,8.95-2.83,12.2-.72,1.29-1.6,2.45-2.61,3.48,1.32,.61,2.61,1.23,3.85,1.88,1.31,.68,2.58,1.38,3.8,2.1,4.16-4.18,6.28-10.46,6.34-18.85h9.46c0,2.24-.16,4.08-.47,5.51-.31,1.43-1.63,2.15-3.94,2.15-1.19,0-2.8-.12-4.85-.37,.6,1.65,1.12,3.63,1.55,5.92,2.82,.08,5.13,.06,6.93-.04v-6.87h8.96c.19-1.15,.33-2.53,.43-4.14,.26-4.31,.39-6.66,.39-7.07h-18.46v-4.78h22.18c.57,7.13,1.63,12.73,3.21,16.78-2.03,1.47-4.17,2.84-6.43,4.12-1.23,.7-2.48,1.37-3.78,2.01-.92,.46-1.86,.9-2.81,1.33,2.42,1.27,4.66,2.7,6.74,4.3,3.45-1.68,6.73-3.57,9.84-5.68,3.09,3.68,6.98,5.52,11.69,5.52,1.58,0,3.14-.34,4.7-1,1.55-.66,2.8-2.18,3.75-4.56,.38-.96,.7-1.84,.95-2.65,.37-1.2,.59-2.24,.67-3.11-.23-.06-.45-.12-.67-.18-3.26-.86-5.79-1.63-7.62-2.29-.02,1.14-.23,2.48-.61,4.05-.39,1.56-.75,2.53-1.07,2.92-.33,.4-.73,.59-1.23,.59-1.3,0-2.75-1.32-4.37-3.95,4.23-3.55,8.07-7.6,11.53-12.14,.45-.58,.89-1.17,1.32-1.77l-.28-.08-7.68-2.23c-2.23,3.22-4.76,6.2-7.61,8.94-.72-3.08-1.18-6.72-1.4-10.92h18.59v-4.87h-2.14v-4.58Zm36.41,17.8h25.48v-2.38h-2.62v-1.76h-7.16l-.02-1.66h-8.68l-.04,1.66h-8.74c.19-.63,.34-1.31,.45-2.02h-9.07c-.08,.73-.22,1.4-.42,2.02h-26.39v4.14h23.28c-2.78,2.11-10.82,3.27-24.12,3.49,.64,1.45,1.1,2.83,1.36,4.13,.97-.03,1.92-.07,2.85-.12v12.36h7.51v-1.54h10.3v1.54h7.51v-13.21h-14.8c8.57-1.03,14.35-2.66,17.33-4.91,3.5,2.29,8.83,3.92,16,4.91h-13.48v13.13h7.52v-1.46h10.36v1.54h7.51v-12.24c.87,.04,1.75,.07,2.66,.08,.38-1.27,.95-2.66,1.68-4.17-12.91-.13-21.66-1.3-26.26-3.53Zm-16.03,10.78v3.41h-10.3v-3.41h10.3Zm30.44,3.41h-10.36v-3.41h10.36v3.41Zm-45.01-32.39v2.33h-3.24v9.1h25.39V11.23h-22.15Zm14.24,7.29h-9.58v-3.16h9.58v3.16Zm32.04-4.96v-2.33h-19.08v11.43h25.32V13.56h-6.24Zm-1.66,4.96h-9.46v-3.16h9.46v3.16Zm-89.22,18.54h-8.48v6.88h8.48v-6.88ZM18.97,10.04h-6.01v6.01h6.01v-6.01Zm-3.01,21.66h-3.01v3.01h3.01v-3.01ZM3.11,66.58H0v3.11H3.11v-3.11Zm12.5,11.79h-4.78v4.78h4.78v-4.78ZM203.34,9.56h-3.58v3.58h3.58v-3.58Zm2.87-3.19h-.56v.56h.56v-.56Zm119.9,18.48h-3.22v3.22h3.22v-3.22Zm5.26,22.94h-4.66v4.66h4.66v-4.66Zm-7.83,6.69h-2.37v2.37h2.37v-2.37Zm-3.2-44.92h-1.79v1.79h1.79v-1.79Zm-.21,61.01h-1.58v1.58h1.58v-1.58Zm-167.2,12.58h-2.28v2.28h2.28v-2.28ZM319.33,0h-3.67V3.67h3.67V0Zm7.47,3.67h-.7v.7h.7v-.7Zm1.83,72.79h-5.09v5.09h5.09v-5.09ZM171.77,0h-1.17V1.17h1.17V0Zm10.5,1.83h-2.53v2.53h2.53V1.83Zm-50.06,2.53h-3.66v3.66h3.66v-3.66ZM14.46,56.85h-1.5v1.5h1.5v-1.5Zm37.48,21.52h-1.21v1.21h1.21v-1.21Zm189.84,7.06h-2.05v2.05h2.05v-2.05ZM8.23,37.06h-2.65v2.65h2.65v-2.65Z"/>
</svg>